# xmcd
#
# Track frame offsets: 
#        150
#        15310
#        28236
#        43651
#        62882
#        81231
#        101664
#        113504
#        137866
#        151476
#        165310
#
# Disc length: 2398 seconds
#
# Revision: 1
# Processed by: cddbd v1.5.2PL0 Copyright (c) Steve Scherf et al.
# Submitted via: ExactAudioCopy v0.99pb4
#
DISCID=86095c0b
DTITLE=Ashton Gwyn - Beg, Borrow and Steel
DYEAR=2001
DGENRE=Blues
TTITLE0=The Sun Don't Shine
TTITLE1=Ain't Got Time For That Stuff
TTITLE2=I Can't Be Satisfied
TTITLE3=Leaving In The Morning
TTITLE4=Double Crossin' Mama
TTITLE5=Wastin' My Time
TTITLE6=Uluru Sunset
TTITLE7=Train Time Shuffle
TTITLE8=Can't Get My Way Around You
TTITLE9=Stop Holding Out
TTITLE10=Sweet Love
EXTD=
EXTT0=
EXTT1=
EXTT2=
EXTT3=
EXTT4=
EXTT5=
EXTT6=
EXTT7=
EXTT8=
EXTT9=
EXTT10=
PLAYORDER=
